<?xml version="1.0" encoding="UTF-8" standalone="no"?>
<!DOCTYPE svg PUBLIC "-//W3C//DTD SVG 1.1//EN" "http://www.w3.org/Graphics/SVG/1.1/DTD/svg11.dtd">
<svg width="100%" height="100%" viewBox="0 0 2562 1887" version="1.1" xmlns="http://www.w3.org/2000/svg" xmlns:xlink="http://www.w3.org/1999/xlink" xml:space="preserve" xmlns:serif="http://www.serif.com/" style="fill-rule:evenodd;clip-rule:evenodd;stroke-linecap:round;stroke-linejoin:round;stroke-miterlimit:1.5;">
    <path d="M1751.999,820.17L1843.038,855.761" style="fill:none;stroke:black;stroke-width:0.83px;"/>
    <path d="M1770.593,793.593L1858.556,828.35L1843.109,855.24L1843.109,876.959L1881.735,836.119L1882.013,817.766L1793.861,780.721L1770.593,793.593Z" style="fill:none;stroke:black;stroke-width:0.83px;"/>
    <path d="M1858.556,828.35L1882.013,817.766" style="fill:none;stroke:black;stroke-width:0.83px;"/>
    <path d="M1770.593,793.593L1752.285,819.911L1751.999,841.94L1843.109,876.959" style="fill:none;stroke:black;stroke-width:0.83px;"/>
    <path d="M1517.958,507.324L1582.053,537.812L1582.284,513.917L1740.367,583.795L1741.415,669.619" style="fill:none;stroke:black;stroke-width:0.83px;"/>
    <path d="M1740.367,583.795L1793.861,538.483" style="fill:none;stroke:black;stroke-width:0.83px;"/>
    <path d="M650.928,914.708L793.679,760.028L825.554,782.125L827.705,814.586L636.222,1012.468L359.164,884.533L359.281,854.707L636.222,978.543L653.743,945.752L682.578,928.23L650.928,914.708Z" style="fill:none;stroke:black;stroke-width:0.83px;"/>
    <path d="M636.222,978.543L636.04,1012.468" style="fill:none;stroke:black;stroke-width:0.83px;"/>
    <path d="M653.743,945.752L376.491,823.314L359.164,855.178" style="fill:none;stroke:black;stroke-width:0.83px;"/>
    <path d="M376.491,823.314L413.312,813.105" style="fill:none;stroke:black;stroke-width:0.83px;"/>
    <path d="M793.679,760.028L773.813,755.349L631.238,905.596L413.312,813.107L631.238,905.596L651.386,914.945" style="fill:none;stroke:black;stroke-width:0.83px;"/>
    <path d="M682.578,928.23L825.554,782.125" style="fill:none;stroke:black;stroke-width:0.83px;"/>
    <path d="M939.984,1304.406L939.984,1320.984L944.167,1320.984L944.167,1306.005" style="fill:none;stroke:black;stroke-width:0.83px;"/>
    <path d="M921.991,1297.132L921.837,1316.493L926.358,1316.432L926.358,1298.531" style="fill:none;stroke:black;stroke-width:0.83px;"/>
    <path d="M911.298,1292.284L911.298,1301.971L916.541,1301.98L916.479,1294.424" style="fill:none;stroke:black;stroke-width:0.83px;"/>
    <path d="M1322.158,1154.453L1220.381,1250.7L1149.351,1225.744L1134.446,1240.044" style="fill:none;stroke:black;stroke-width:0.83px;"/>
    <path d="M1552.168,1126.703L1552.341,1108.657" style="fill:none;stroke:black;stroke-width:0.83px;"/>
    <path d="M1521.607,1052.408L1505.804,1045.864L1516.254,1040.407L1532.574,1047.442" style="fill:none;stroke:black;stroke-width:0.83px;"/>
    <path d="M1505.804,1045.864L1488.558,1066.517L1492.742,1070.785" style="fill:none;stroke:black;stroke-width:0.83px;"/>
    <path d="M1542.689,1044.232L1600.873,1069.153L1601.295,1083.831L1551.982,1126.703L1506.258,1107.484L1506.258,1088.688L1492.742,1080.663L1492.742,1070.631L1506.786,1074.221L1522.203,1051.624L1542.689,1044.232Z" style="fill:none;stroke:black;stroke-width:0.83px;"/>
    <path d="M1506.786,1074.221L1500.157,1085.066" style="fill:none;stroke:black;stroke-width:0.83px;"/>
    <path d="M1522.203,1051.624L1576.917,1074.118L1552.35,1108.657L1506.301,1088.741" style="fill:none;stroke:black;stroke-width:0.83px;"/>
    <path d="M1576.917,1074.118L1600.873,1069.153" style="fill:none;stroke:black;stroke-width:0.83px;"/>
    <path d="M1209.497,960.918L1209.497,975.362" style="fill:none;stroke:black;stroke-width:0.83px;"/>
    <path d="M1267.259,906.821L1268.579,939.688L1332.069,965.824L1357.619,948.989L1332.069,965.824L1314.452,994.888L1357.619,950.027" style="fill:none;stroke:black;stroke-width:0.83px;"/>
    <path d="M1268.579,939.688L1217.732,952.536" style="fill:none;stroke:black;stroke-width:0.83px;"/>
    <path d="M1314.452,994.888L1217.732,953.46" style="fill:none;stroke:black;stroke-width:0.83px;"/>
    <path d="M868.198,1032.15L868.409,991.707L893.541,961.4L922.369,970.059L898.218,1001.147L898.927,1042.921" style="fill:none;stroke:black;stroke-width:0.83px;"/>
    <path d="M869.141,990.825L898.218,1001.147" style="fill:none;stroke:black;stroke-width:0.83px;"/>
    <path d="M1762.206,709.957L1708.668,764.762L1708.668,782.819" style="fill:none;stroke:black;stroke-width:0.83px;"/>
    <path d="M1708.668,764.762L1730.051,772.761L1729.893,791.106" style="fill:none;stroke:black;stroke-width:0.83px;"/>
    <path d="M1730.051,772.761L1782.319,721.737" style="fill:none;stroke:black;stroke-width:0.83px;"/>
    <path d="M1267.191,906.731L1209.497,960.647L1250.269,978.903L1250.269,987.441L1315.972,1015.105" style="fill:none;stroke:black;stroke-width:0.83px;"/>
    <path d="M1517.843,601.529L1499.048,632.853L1511.943,640.274L1531.954,620.08L1532.258,608.281L1517.843,601.529Z" style="fill:none;stroke:black;stroke-width:0.83px;"/>
    <path d="M1364.024,668.403L1363.993,678.096" style="fill:none;stroke:black;stroke-width:0.83px;"/>
    <path d="M1348.079,662.604L1348.104,671.498" style="fill:none;stroke:black;stroke-width:0.83px;"/>
    <path d="M1336.587,673.9L1336.587,682.293" style="fill:none;stroke:black;stroke-width:0.83px;"/>
    <path d="M1191.243,795.293L1191.243,808.72" style="fill:none;stroke:black;stroke-width:0.83px;"/>
    <path d="M1201.746,800.172L1320.459,689.433L1348.128,662.6L1369.845,670.326L1376.841,662.495L1343.011,650.07L1307.198,681.811L1191.243,795.27L1201.746,800.172Z" style="fill:none;stroke:black;stroke-width:0.83px;"/>
    <path d="M1201.828,817.268L1201.746,800.172" style="fill:none;stroke:black;stroke-width:0.83px;"/>
    <path d="M1517.772,546.46L1494.116,569.247L1493.715,574.593L1489.572,573.323L1489.372,570.65L1474.136,563.567L1470.995,565.905L1469.124,565.638L1466.852,564.235L1466.318,560.092L1446.338,550.202L1444.132,551.739L1440.992,551.138L1439.655,549.667L1440.056,537.038L1432.505,534.565L1392.344,573.323L1384.392,569.514L1381.92,571.652L1382.12,583.547L1361.873,603.861L1361.672,590.897L1351.114,600.854L1348.709,600.854L1346.503,597.713L1296.653,648.566L1293.045,650.571L1286.964,655.716L1277.943,652.241" style="fill:none;stroke:black;stroke-width:0.83px;"/>
    <path d="M1804.806,743.563L1851.405,695.796" style="fill:none;stroke:black;stroke-width:0.83px;"/>
    <path d="M1904.623,781.758L1950.773,735.295" style="fill:none;stroke:black;stroke-width:0.83px;"/>
    <path d="M1851.391,695.796L1951.061,735.052L1951.826,769.72L1902.628,822.486L1803.723,783.995L1804.997,743.464L1904.388,781.767L1904.316,820.676" style="fill:none;stroke:black;stroke-width:0.83px;"/>
    <path d="M1571.794,924.916L1572.055,959.111" style="fill:none;stroke:black;stroke-width:0.83px;"/>
    <path d="M1511.236,994.741L1543.081,960.416L1559.787,935.226" style="fill:none;stroke:black;stroke-width:0.83px;"/>
    <path d="M1516.538,1008.704L1544.833,977.605" style="fill:none;stroke:black;stroke-width:0.83px;"/>
    <path d="M1277.009,1057.009L1341.744,1091.464" style="fill:none;stroke:black;stroke-width:0.83px;"/>
    <path d="M1341.744,1091.464L1474.858,957.635" style="fill:none;stroke:black;stroke-width:0.83px;"/>
    <path d="M1341.744,1091.464L1341.744,1149.297" style="fill:none;stroke:black;stroke-width:0.83px;"/>
    <path d="M1408.525,920.798L1474.752,957.616L1475.918,1014.947L1382.73,1111.267" style="fill:none;stroke:black;stroke-width:0.83px;"/>
    <path d="M1382.73,1111.267L1341.744,1149.297" style="fill:none;stroke:black;stroke-width:0.83px;"/>
    <path d="M1341.744,1149.297L1322.158,1138.842" style="fill:none;stroke:black;stroke-width:0.83px;"/>
    <path d="M1113.426,813.549L1267.8,660.194" style="fill:none;stroke:black;stroke-width:0.83px;"/>
    <path d="M943.885,983.31L1100.453,828.013" style="fill:none;stroke:black;stroke-width:0.83px;"/>
    <path d="M915.368,963.783L919.027,959.388L936,965.799L935.866,1011.443L940.477,1011.243" style="fill:none;stroke:black;stroke-width:0.83px;"/>
    <path d="M859.953,993.798L893.699,957.179L929.516,968.338L929.583,1016.718" style="fill:none;stroke:black;stroke-width:0.83px;"/>
    <path d="M776.571,965.799L859.953,993.664L859.886,1036.565" style="fill:none;stroke:black;stroke-width:0.83px;"/>
    <path d="M789.086,1032.36L880.175,1070.951" style="fill:none;stroke:black;stroke-width:0.42px;"/>
    <path d="M1350.382,1210.512L1349.648,1154.717L1422.084,1083.016L1435.298,1088.4L1437.745,1085.218L1494.519,1109.445L1495.987,1114.829L1531.226,1130.735L1532.695,1185.062L1460.014,1253.093L1350.382,1210.512Z" style="fill:none;stroke:black;stroke-width:1px;"/>
    <path d="M1053.731,1217.612L1052.752,1197.839L1026.323,1184.331L1054.319,1152.616L1059.8,1154.378L1074.091,1201.951L1065.478,1212.131L1134.193,1239.539" style="fill:none;stroke:black;stroke-width:1px;"/>
    <path d="M776.571,963.172L776.571,1010.991L796.169,1018.128" style="fill:none;stroke:black;stroke-width:1px;"/>
    <path d="M1782.153,721.737L1816.261,689.758" style="fill:none;stroke:black;stroke-width:1px;"/>
    <path d="M1767.977,712.335L1782.185,721.431L1782.672,738.506" style="fill:none;stroke:black;stroke-width:1px;"/>
    <path d="M1683.057,817.593L1615.774,884.5" style="fill:none;stroke:black;stroke-width:1px;"/>
    <path d="M1615.774,878.204L1615.774,920.655" style="fill:none;stroke:black;stroke-width:1px;"/>
    <path d="M1534.865,909.684L1571.514,925.283L1615.774,878.11L1586.267,863.45" style="fill:none;stroke:black;stroke-width:1px;"/>
    <path d="M1639.924,806.128L1586.549,863.544L1576.494,859.974L1533.174,907.147L1534.583,910.436L1535.241,922.746L1517.668,940.788L1512.5,936.747L1493.612,953.568" style="fill:none;stroke:black;stroke-width:1px;"/>
    <path d="M1294.765,1036.86L1408.228,921.255L1408.791,914.395L1464.892,853.972L1518.831,879.438L1519.301,902.273L1624.548,791.106L1640.523,796.838L1639.771,806.423L1648.041,798.718L1683.279,815.351L1683.939,844.584" style="fill:none;stroke:black;stroke-width:1px;"/>
    <path d="M1267.222,906.731C1266.888,906.703 1357.555,948.967 1357.555,948.967L1357.619,958.336L1353.732,962.966L1353.666,976.502" style="fill:none;stroke:black;stroke-width:0.83px;"/>
    <path d="M955.333,1310.659L903.65,1289.163L904.354,1267.08L1038.014,1127.138L1037.309,1092.486L1125.524,1004.859L1224.663,987.709L1289.268,1017.192L1294.671,1036.926L1276.7,1057.012L1276.585,1074.905L1322.158,1101.179L1322.158,1155.212" style="fill:none;stroke:black;stroke-width:1px;"/>
    <path d="M1248.644,1060.026L1289.654,1018.602" style="fill:none;stroke:black;stroke-width:0.83px;"/>
    <path d="M1121.226,1009.128L1182.33,1028.364L1180.456,1036.301L1170.207,1031.864L1159.084,1049.361L1153.772,1047.174L1142.348,1066.898L1132.206,1062.331L1122.32,1082.103L1116.217,1079.418L1099.862,1111.64L1037.493,1092.478" style="fill:none;stroke:black;stroke-width:0.83px;"/>
    <path d="M1182.33,1028.364L1192.5,1017.591L1248.644,1043.857L1229.604,1080.277" style="fill:none;stroke:black;stroke-width:0.83px;"/>
    <path d="M1192.5,1017.591L1227.194,989.154" style="fill:none;stroke:black;stroke-width:0.83px;"/>
    <path d="M1248.644,1043.857L1248.644,1059.892" style="fill:none;stroke:black;stroke-width:0.83px;"/>
    <path d="M1248.644,1059.892L1276.585,1074.905" style="fill:none;stroke:black;stroke-width:0.83px;"/>
    <path d="M1180.456,1036.301L1229.604,1058.698L1216.422,1091.994" style="fill:none;stroke:black;stroke-width:0.83px;"/>
    <path d="M1229.604,1058.698L1229.604,1080.277" style="fill:none;stroke:black;stroke-width:0.83px;"/>
    <path d="M1159.084,1049.361L1216.422,1075.395L1198.748,1109.122" style="fill:none;stroke:black;stroke-width:0.83px;"/>
    <path d="M1216.422,1075.395L1216.422,1091.994" style="fill:none;stroke:black;stroke-width:0.83px;"/>
    <path d="M1142.348,1066.898L1198.651,1092.287L1180.735,1127.145" style="fill:none;stroke:black;stroke-width:0.83px;"/>
    <path d="M1198.651,1092.287L1198.748,1109.122" style="fill:none;stroke:black;stroke-width:0.83px;"/>
    <path d="M1122.32,1082.103L1180.735,1112.685L1160.597,1146.737L1180.735,1112.685L1180.722,1126.785" style="fill:none;stroke:black;stroke-width:0.83px;"/>
    <path d="M1099.862,1111.64L1157.686,1138.272L1137.064,1168.111L1075.276,1143.115L1073.636,1138.35L1063.871,1104.449L1040.828,1096.637L1041.297,1132.57" style="fill:none;stroke:black;stroke-width:0.83px;"/>
    <path d="M1073.636,1138.35L1093.645,1109.819" style="fill:none;stroke:black;stroke-width:0.83px;"/>
    <path d="M1012.57,898.177L1012.57,927.993" style="fill:none;stroke:black;stroke-width:1px;"/>
    <path d="M958.06,946.741L958.06,995.305" style="fill:none;stroke:black;stroke-width:1px;"/>
    <path d="M847.952,1032.143L848.086,1035.873L896.892,1057.356L897.718,1092.538L860.524,1118.335L838.665,1109.148L834.309,1109.386L830.191,1113.504L792.572,1095.447L792.572,1092.754L772.415,1083.893L772.502,1073.329L769.636,1069.541L769.592,1063.729L771.609,1061.511L770.802,1045.582L800.443,1013.924L861.179,1037.216L868.109,1032.116L898.151,1043.364L919.831,1024.992L924.58,1024.579L929.226,1016.733" style="fill:none;stroke:black;stroke-width:1px;"/>
    <path d="M678.048,1051.833L725.837,1005.052L752.05,1014.529L753.865,1037.516L710.512,1081.675" style="fill:none;stroke:black;stroke-width:1px;"/>
    <path d="M1911.017,686.014L2008.392,727.64L2051.877,754.648" style="fill:none;stroke:black;stroke-width:1px;"/>
    <path d="M1813.146,617.876L1939.883,663.838L1946.449,663.962L2003.437,688.368L2076.035,731.728" style="fill:none;stroke:black;stroke-width:1px;"/>
    <path d="M1820.332,563.242L1844.118,540.557L2091.072,650.605L2097.219,645.627L2141.801,677.05L2096.352,720.826L1820.332,593.099" style="fill:none;stroke:black;stroke-width:1px;"/>
    <path d="M1286.977,539.827L1220.902,604.843L1225.659,607.122L1233.985,606.825L1251.725,616.438L1253.807,619.511L1272.142,629.223L940.068,960.984L819.848,921.836" style="fill:none;stroke:black;stroke-width:1px;"/>
    <path d="M1227.066,514.138L1286.783,539.786L1286.977,599.987" style="fill:none;stroke:black;stroke-width:1px;"/>
    <path d="M1623.47,620.344L1623.47,609.601L1582.999,590.045L1578.159,594.594L1530.831,567.01L1530.153,560.815L1528.314,559.848L1522.7,565.171L1517.958,563.332L1518.055,507.292L1548.252,478.063L1548.639,465.868L1559.479,453.189" style="fill:none;stroke:black;stroke-width:1px;"/>
    <path d="M1743.266,670.719L1625.178,618.691L1547.573,690.09" style="fill:none;stroke:black;stroke-width:1px;"/>
    <path d="M1587.907,652.92L1723.158,714.999L1760.95,680.242L1760.887,682.571L1725.393,717.566L1675.588,754.248L1547.573,694.064L1547.573,690.09" style="fill:none;stroke:black;stroke-width:0.83px;"/>
    <path d="M1723.158,715.016L1674.429,749.827L1547.573,690.09" style="fill:none;stroke:black;stroke-width:0.83px;"/>
    <path d="M776.571,963.172L809.585,927.893L819.055,930.756L819.577,919.026L1227.162,514.273L1227.379,487.632L1251.407,463.024L1251.334,421.285L1296.63,362.342L1336.192,337.516L1458.942,392.975L1450.013,399.58L1476.509,413.082L1488.849,404.299L1558.826,436.892L1559.552,453.079L1574.578,439.142L1820.223,550.64L1820.133,604.357L1798.991,626.951L1912.508,677.914L1903.765,686.657L1767.422,627.11L1767.185,645.305L1743.312,670.722L1761.042,680.041L1761.514,709.341L1768.367,712.649L1800.976,682.404L1816.831,689.21L1816.971,704.091L1729.851,790.863L1709.293,782.593L1703.108,786.288L1703.113,799.065L1695.588,808.822L1679.542,805.727L1679.52,790.627L1673.849,793.226L1654.945,786.846L1653.763,783.775L1647.856,783.775L1634.387,777.867L1634.387,770.542L1606.085,759.335" style="fill:none;stroke:black;stroke-width:1px;"/>
    <path d="M806.886,930.778L891.018,959.67" style="fill:none;stroke:black;stroke-width:0.83px;"/>
</svg>
